<?xml version="1.0" encoding="UTF-8" standalone="no"?>
<!-- Created with Inkscape (http://www.inkscape.org/) -->

<svg
   xmlns:dc="http://purl.org/dc/elements/1.1/"
   xmlns:cc="http://creativecommons.org/ns#"
   xmlns:rdf="http://www.w3.org/1999/02/22-rdf-syntax-ns#"
   xmlns:svg="http://www.w3.org/2000/svg"
   xmlns="http://www.w3.org/2000/svg"
   xmlns:sodipodi="http://sodipodi.sourceforge.net/DTD/sodipodi-0.dtd"
   xmlns:inkscape="http://www.inkscape.org/namespaces/inkscape"
   width="20"
   height="20"
   viewBox="0 0 20 20"
   version="1.1"
   id="svg8"
   inkscape:version="0.92.4 (5da689c313, 2019-01-14)"
   sodipodi:docname="chat.svg">
  <defs
     id="defs2" />
  <sodipodi:namedview
     id="base"
     pagecolor="#ffffff"
     bordercolor="#666666"
     borderopacity="1.0"
     inkscape:pageopacity="0.0"
     inkscape:pageshadow="2"
     inkscape:zoom="15.839192"
     inkscape:cx="4.0713768"
     inkscape:cy="18.248888"
     inkscape:document-units="mm"
     inkscape:current-layer="svg8"
     showgrid="false"
     inkscape:window-width="1841"
     inkscape:window-height="1051"
     inkscape:window-x="70"
     inkscape:window-y="-9"
     inkscape:window-maximized="1" />
  <metadata
     id="metadata5">
    <rdf:RDF>
      <cc:Work
         rdf:about="">
        <dc:format>image/svg+xml</dc:format>
        <dc:type
           rdf:resource="http://purl.org/dc/dcmitype/StillImage" />
        <dc:title></dc:title>
      </cc:Work>
    </rdf:RDF>
  </metadata>
  <g
     inkscape:label="Layer 1"
     inkscape:groupmode="layer"
     id="layer1" />
  <path
     style="fill:#ffffff;stroke:none;stroke-width:1px;stroke-linecap:butt;stroke-linejoin:miter;stroke-opacity:1;fill-opacity:1"
     d="M 19.375,16.25 H 11.25 v 0.018 l 0.293,10e-4 c 0,0 -0.109,0.066 -0.293,0.177 v 0.009 c -0.176,0.105 -0.417,0.248 -0.71,0.42 h -0.007 c -0.205,0.121 -0.435,0.257 -0.681,0.4 C 8.126,18.274 5.585,19.692 4.625,19.956 4.623,19.957 4.62,19.958 4.617,19.958 4.519,19.985 4.437,20 4.375,20 v 0 0 H 3.75 3.125 c 0,0 -0.625,-0.196 -0.625,-0.625 0,-0.297 0,-1.677 0,-2.5 v 0 -0.625 H 0.625 C 0.28,16.25 0,15.97 0,15.625 v -15 C 0,0.279 0.28,-0.001 0.625,-0.001 h 18.75 c 0.345,0 0.625,0.28 0.625,0.626 v 15 c 0,0.345 -0.28,0.625 -0.625,0.625 z M 18.75,1.249 H 1.25 V 15 h 2.5 v 1.25 0 0.002 0 2.497 0 0 0 c 0,0 0,0 0,0 0.101,0 0.224,-0.019 0.357,-0.049 0.082,-0.017 0.173,-0.044 0.265,-0.071 0.029,-0.008 0.056,-0.017 0.086,-0.026 1.15,-0.364 2.932,-1.378 4.292,-2.217 v -10e-4 c 0.685,-0.417 1.152,-0.721 1.152,-0.721 0.021,-0.017 0.038,-0.028 0.058,-0.043 0.273,-0.178 0.473,-0.312 0.579,-0.386 0.19,-0.103 0.342,-0.162 0.456,-0.193 C 11.131,15.014 11.25,15 11.25,15 h 7.5 z"
     id="path815"
     inkscape:connector-curvature="0" />
</svg>
