<?xml version="1.0" encoding="UTF-8" standalone="no"?>
<!-- Created with Inkscape (http://www.inkscape.org/) -->

<svg
   xmlns:dc="http://purl.org/dc/elements/1.1/"
   xmlns:cc="http://creativecommons.org/ns#"
   xmlns:rdf="http://www.w3.org/1999/02/22-rdf-syntax-ns#"
   xmlns:svg="http://www.w3.org/2000/svg"
   xmlns="http://www.w3.org/2000/svg"
   xmlns:sodipodi="http://sodipodi.sourceforge.net/DTD/sodipodi-0.dtd"
   xmlns:inkscape="http://www.inkscape.org/namespaces/inkscape"
   width="20"
   height="17"
   viewBox="0 0 20 17"
   version="1.1"
   id="svg823"
   inkscape:version="0.92.4 (5da689c313, 2019-01-14)"
   sodipodi:docname="heart.svg">
  <defs
     id="defs817">
    <filter
       inkscape:collect="always"
       style="color-interpolation-filters:sRGB"
       id="filter1394"
       x="-0.0333009"
       width="1.0666018"
       y="-0.039175225"
       height="1.0783504">
      <feGaussianBlur
         inkscape:collect="always"
         stdDeviation="0.2775075"
         id="feGaussianBlur1396" />
    </filter>
  </defs>
  <sodipodi:namedview
     id="base"
     pagecolor="#ffffff"
     bordercolor="#666666"
     borderopacity="1.0"
     inkscape:pageopacity="0.0"
     inkscape:pageshadow="2"
     inkscape:zoom="11.2"
     inkscape:cx="0.40531501"
     inkscape:cy="11.00194"
     inkscape:document-units="mm"
     inkscape:current-layer="layer1"
     showgrid="false"
     inkscape:window-width="1841"
     inkscape:window-height="1051"
     inkscape:window-x="70"
     inkscape:window-y="-9"
     inkscape:window-maximized="1" />
  <metadata
     id="metadata820">
    <rdf:RDF>
      <cc:Work
         rdf:about="">
        <dc:format>image/svg+xml</dc:format>
        <dc:type
           rdf:resource="http://purl.org/dc/dcmitype/StillImage" />
        <dc:title></dc:title>
      </cc:Work>
    </rdf:RDF>
  </metadata>
  <g
     inkscape:label="Layer 1"
     inkscape:groupmode="layer"
     id="layer1">
    <path
       style="fill:#ffffff;stroke:none;stroke-width:1px;stroke-linecap:butt;stroke-linejoin:miter;stroke-opacity:1;fill-opacity:1;opacity:0.99;filter:url(#filter1394)"
       d="M 19.38,7.577 C 19.365,7.686 19.217,7.907 18.962,8.216 18.799,8.431 18.623,8.635 18.429,8.823 16.041,11.434 10,17 10,17 10,17 3.959,11.434 1.571,8.823 1.377,8.635 1.201,8.431 1.038,8.216 0.783,7.907 0.634,7.686 0.62,7.577 0.225,6.856 0,6.034 0,5.16 0,2.31 2.378,-0.001 5.312,-0.001 c 2.031,0 3.794,1.108 4.688,2.734 0.894,-1.626 2.657,-2.734 4.687,-2.734 2.934,0 5.313,2.311 5.313,5.161 0,0.874 -0.225,1.696 -0.62,2.417 z M 14.687,1.214 c -0.183,0 -0.361,0.016 -0.538,0.038 -0.045,0.006 -0.09,0.013 -0.134,0.021 -0.161,0.026 -0.319,0.059 -0.473,0.103 -0.013,0.003 -0.027,0.006 -0.04,0.01 -0.17,0.05 -0.334,0.113 -0.493,0.184 -0.031,0.013 -0.06,0.027 -0.09,0.041 -0.144,0.068 -0.283,0.144 -0.417,0.227 L 12.5,1.821 c 0,0 -0.179,0.129 -0.438,0.336 C 12.051,2.166 12.038,2.173 12.027,2.183 12.02,2.189 12.013,2.195 12.006,2.202 11.464,2.638 10.595,3.401 10,4.25 9.404,3.401 8.536,2.638 7.994,2.202 7.987,2.195 7.98,2.189 7.973,2.183 7.962,2.173 7.949,2.166 7.938,2.157 7.679,1.95 7.5,1.821 7.5,1.821 L 7.498,1.838 C 7.364,1.755 7.225,1.679 7.081,1.611 7.051,1.597 7.022,1.583 6.991,1.57 6.832,1.499 6.668,1.436 6.498,1.386 6.485,1.382 6.471,1.379 6.458,1.376 6.304,1.332 6.146,1.299 5.985,1.273 5.941,1.265 5.896,1.258 5.851,1.252 5.674,1.23 5.496,1.214 5.312,1.214 3.069,1.214 1.25,2.981 1.25,5.16 1.25,5.316 1.262,5.468 1.279,5.618 1.285,5.662 1.293,5.706 1.3,5.75 1.317,5.858 1.337,5.964 1.362,6.068 1.373,6.114 1.385,6.159 1.398,6.204 1.428,6.311 1.463,6.415 1.502,6.518 1.515,6.553 1.528,6.589 1.542,6.624 1.598,6.76 1.659,6.892 1.729,7.019 v 0 C 1.781,7.113 1.844,7.2 1.902,7.289 1.901,7.291 1.896,7.298 1.895,7.299 1.63,7.595 9.601,15.107 10,15.394 10.399,15.107 18.37,7.595 18.105,7.299 18.104,7.298 18.099,7.291 18.097,7.289 18.156,7.2 18.219,7.113 18.271,7.019 v 0 c 0.07,-0.127 0.131,-0.259 0.187,-0.395 0.014,-0.035 0.027,-0.071 0.04,-0.106 0.039,-0.103 0.074,-0.207 0.104,-0.314 0.012,-0.045 0.025,-0.09 0.036,-0.136 0.025,-0.104 0.045,-0.21 0.062,-0.318 0.007,-0.044 0.015,-0.088 0.02,-0.132 0.018,-0.15 0.03,-0.302 0.03,-0.458 0,-2.179 -1.819,-3.946 -4.063,-3.946 z"
       id="path1380"
       inkscape:connector-curvature="0" />
  </g>
</svg>
